<?xml version="1.0" encoding="utf-8"?>
<!-- Generator: Adobe Illustrator 28.0.0, SVG Export Plug-In . SVG Version: 6.00 Build 0)  -->
<svg version="1.1" id="Capa_1" xmlns="http://www.w3.org/2000/svg" xmlns:xlink="http://www.w3.org/1999/xlink" x="0px" y="0px"
	 viewBox="0 0 120 120" style="enable-background:new 0 0 120 120;" xml:space="preserve">
<g>
	<path d="M16.4,120c-4.2,0-8.4-1.6-11.6-4.8c-3.1-3-4.8-7.2-4.8-11.5c0-4.3,1.7-8.5,4.8-11.6l38.3-38.3c-5.4-14.4-1.9-31,9.1-42.1
		c11.9-11.8,29.9-15,45.1-7.9c1.3,0.6,2.3,1.9,2.5,3.3s-0.2,2.9-1.3,4L76.4,33.2l10.4,10.4l22.1-22.2c1-1,2.5-1.5,4-1.3
		c1.4,0.3,2.7,1.2,3.3,2.5c7.2,15.1,3.9,33.2-7.9,45c-11.1,11.1-27.5,14.5-42,9.1L28,115.1C24.8,118.5,20.7,120,16.4,120z M80.3,9.1
		c-8,0-15.8,3.1-21.7,9c-9.1,9.1-11.5,23.1-6,34.7c0.8,1.7,0.5,3.8-0.9,5.1L11.2,98.5c-1.4,1.4-2.1,3.2-2.1,5.1s0.8,3.8,2.1,5.1
		c2.8,2.8,7.5,2.8,10.4,0l40.5-40.6c1.3-1.3,3.4-1.7,5.1-0.9c11.7,5.5,25.6,3,34.7-6.1c7.5-7.5,10.5-18.3,8.3-28.3L90,53.1
		c-0.8,0.8-2,1.3-3.2,1.3s-2.3-0.5-3.2-1.3L66.7,36.5c-1.8-1.8-1.8-4.6,0-6.5L86.9,9.8C84.8,9.3,82.6,9.1,80.3,9.1z"/>
</g>
</svg>
