<?xml version="1.0" encoding="utf-8"?>
<!-- Generator: Adobe Illustrator 28.0.0, SVG Export Plug-In . SVG Version: 6.00 Build 0)  -->
<svg version="1.1" id="Capa_1" xmlns="http://www.w3.org/2000/svg" xmlns:xlink="http://www.w3.org/1999/xlink" x="0px" y="0px"
	 viewBox="0 0 120 120" style="enable-background:new 0 0 120 120;" xml:space="preserve">
<path d="M60,0C26.9,0,0,26.9,0,60c0,0,0,0,0,0c0,0,0,0,0,0c0,0,0,0,0,0c0,33.1,26.9,60,60,60c33.1,0,60-26.9,60-60
	C120,26.9,93.1,0,60,0z M110.7,55.5H88.4c-0.6-18-4.6-33.3-10.8-43.2C95.7,18.9,108.9,35.6,110.7,55.5z M60,110.9
	c-8.7,0-18.3-19.5-19.3-46.4h38.6C78.3,91.4,68.7,110.9,60,110.9z M40.7,55.5C41.7,28.6,51.3,9.1,60,9.1s18.3,19.5,19.3,46.4H40.7z
	 M42.4,12.2c-6.2,10-10.2,25.3-10.8,43.2H9.3C11.1,35.6,24.3,18.9,42.4,12.2z M9.3,64.5h22.3c0.6,18,4.6,33.3,10.8,43.2
	C24.3,101.1,11.1,84.4,9.3,64.5z M77.6,107.8c6.2-10,10.2-25.3,10.8-43.2h22.3C108.9,84.4,95.7,101.1,77.6,107.8z"/>
</svg>
